<svg id="SvgjsSvg1022" width="288" height="288" xmlns="http://www.w3.org/2000/svg" version="1.1" xmlns:xlink="http://www.w3.org/1999/xlink" xmlns:svgjs="http://svgjs.com/svgjs"><defs id="SvgjsDefs1023"></defs><g id="SvgjsG1024"><svg xmlns="http://www.w3.org/2000/svg" viewBox="0 0 53 53" width="288" height="288"><path d="M26.5 20.89a9.42 9.42 0 1 0 9.42 9.42 9.44 9.44 0 0 0-9.42-9.42Zm0 16.83a7.42 7.42 0 1 1 7.42-7.41 7.42 7.42 0 0 1-7.42 7.41Z" fill="#ffffff" class="svgShape color000000-0 selectable"></path><path d="M26.53 29.31h-.07a.68.68 0 0 1-.67-.68.67.67 0 0 1 .67-.67.66.66 0 0 1 .59.34 1 1 0 1 0 1.75-1 2.7 2.7 0 0 0-1.44-1.2v-.2a1 1 0 0 0-2 0v.27a2.67 2.67 0 0 0 1.1 5.11h.07a.67.67 0 0 1 .68.67.68.68 0 0 1-.68.68.69.69 0 0 1-.59-.35 1 1 0 1 0-1.74 1 2.61 2.61 0 0 0 1.16 1.07v.32a1 1 0 0 0 2 0v-.17a2.66 2.66 0 0 0-.83-5.2Z" fill="#ffffff" class="svgShape color000000-1 selectable"></path><path d="M39.56 8.37h-4.51V4.63h1.72a1 1 0 0 0 0-2H16.23a1 1 0 0 0 0 2H18v3.74h-4.56a3 3 0 0 0-3 3v36a3 3 0 0 0 3 3h26.12a3 3 0 0 0 3-3v-36a3 3 0 0 0-3-3ZM20 4.63h13.1v3.74H20Zm20.56 42.74a1 1 0 0 1-1 1H13.44a1 1 0 0 1-1-1v-36a1 1 0 0 1 1-1h26.12a1 1 0 0 1 1 1Z" fill="#ffffff" class="svgShape color000000-2 selectable"></path><path d="M20.94 13.82a1 1 0 0 0-1-1h-4.18a1 1 0 0 0-1 1v5.8a1 1 0 0 0 2 0v-4.8h3.18a1 1 0 0 0 1-1zm1.59 1h.64a1 1 0 0 0 0-2h-.64a1 1 0 0 0 0 2z" fill="#ffffff" class="svgShape color000000-3 selectable"></path></svg></g></svg>