<svg id="SvgjsSvg1059" width="288" height="288" xmlns="http://www.w3.org/2000/svg" version="1.1" xmlns:xlink="http://www.w3.org/1999/xlink" xmlns:svgjs="http://svgjs.com/svgjs"><defs id="SvgjsDefs1060"></defs><g id="SvgjsG1061"><svg xmlns="http://www.w3.org/2000/svg" viewBox="0 0 1000 1000" width="288" height="288"><path d="M204.43,327.2H75a14,14,0,0,1-14-14V197.38a78.72,78.72,0,0,1,157.43,0V313.2A14,14,0,0,1,204.43,327.2ZM89,299.2H190.43V197.38a50.72,50.72,0,0,0-101.43,0Z" fill="#ffffff" class="svgShape color000000-0 selectable"></path><path d="M719.83,881.34H269.14a78.82,78.82,0,0,1-78.72-78.72V313.2a14,14,0,0,1,14-14h0a14,14,0,0,1,14,14V802.62a50.72,50.72,0,1,0,101.44,0V717.33a14,14,0,0,1,14-14h450.7a14,14,0,0,1,14,14v85.28A78.82,78.82,0,0,1,719.83,881.34Zm-390.48-28H719.83a50.79,50.79,0,0,0,50.73-50.73V731.33H347.86v71.29A78.16,78.16,0,0,1,329.35,853.34Z" fill="#ffffff" class="svgShape color000000-1 selectable"></path><path d="M678.19 731.33a14 14 0 0 1-14-14V571.64a14 14 0 1 1 28 0V717.33A14 14 0 0 1 678.19 731.33ZM678.19 422.09a14 14 0 0 1-14-14V197.4a50.78 50.78 0 0 0-50.72-50.74H139.72a14 14 0 0 1 0-28H613.47a78.82 78.82 0 0 1 78.72 78.74V408.09A14 14 0 0 1 678.19 422.09Z" fill="#ffffff" class="svgShape color000000-2 selectable"></path><path d="M692.25,587c-2.67,0-5.37-.1-8.1-.32-13.84-1.12-26.78-6.64-39.55-16.88l-2.84-2.29a72.73,72.73,0,0,1-11.58-11.82h0a71.43,71.43,0,0,1-12.8-25.85,96.58,96.58,0,0,1-2.49-35.36c2.68-23.52,12.34-45.76,30.39-70C658,407.34,673.2,393,685,382.49a31.88,31.88,0,0,1,8.81-5.85,23.86,23.86,0,0,1,14.31-1.33A87.5,87.5,0,0,1,712.63,365a42.36,42.36,0,0,1,11-13.44,358.1,358.1,0,0,1,74.55-43.76C823,297,845.75,290.5,867.83,288c19.79-2.22,37.36-1.31,53.72,2.78a30.31,30.31,0,0,1,4.92,1.68c8.89,3.9,11.44,10.41,12.17,13.95s1,10.41-5.5,17.33c-3.06,3.27-6.19,6.44-9.22,9.51s-6.13,6.2-9,9.32c-30.88,33.17-52.84,68.05-67.14,106.61a115.32,115.32,0,0,0-4.1,12.86c-2.16,8.84-8.31,20.26-25.29,24.48l-4.69,1.15a22.35,22.35,0,0,1,1,3.43,23.32,23.32,0,0,1-5.56,19.81c-8.74,10.08-16.86,18.8-24.84,26.66-11,10.8-25.85,24.62-43.92,35.79A90,90,0,0,1,692.25,587Zm-40-48.49a44.26,44.26,0,0,0,7.1,7.25c.91.74,1.8,1.47,2.71,2.19,8.38,6.72,16.1,10.15,24.29,10.82,14.45,1.17,27.27-1.85,39.2-9.23,12.24-7.57,24.27-17.41,39-31.91,6.2-6.11,12.53-12.81,19.24-20.38l-1.05-.39c-1.25-.48-2.52-.94-3.78-1.41l-1.78-.66a14,14,0,0,1-9.13-13.6l0-.68a14,14,0,0,1,9.78-12.88l.57-.19a31.81,31.81,0,0,1,3.06-.92l10.38-2.45c6.49-1.53,13.19-3.1,19.72-4.72,4.13-1,4.44-2.33,4.85-4a142.53,142.53,0,0,1,5-15.93C836.9,398,861.43,358.94,894.4,323.5c2.51-2.69,5.06-5.32,7.58-7.87a135.08,135.08,0,0,0-31,.21c-19.26,2.16-39.4,7.91-61.56,17.57a330.24,330.24,0,0,0-68.73,40.34,14.52,14.52,0,0,0-3.37,4.45,67,67,0,0,0-3.19,7.48c-.72,1.89-1.47,3.85-2.34,5.88-1.24,2.87-2.54,5.61-3.92,8.52-.62,1.29-1.26,2.64-1.93,4.07a14,14,0,0,1-24.64,1.35c-10.41,9.42-23.08,21.65-33.54,35.7-15,20.12-22.93,38.06-25,56.46a68.59,68.59,0,0,0,1.77,25.13,43.19,43.19,0,0,0,7.82,15.73ZM705,402.31Z" fill="#ffffff" class="svgShape color000000-3 selectable"></path><path d="M605.71 633.89a14 14 0 0 1-12.08-21c57.56-98.8 112.49-161.68 148.44-197 39.54-38.88 65.43-54.08 66.51-54.71a14 14 0 0 1 14.08 24.2c-.37.22-24.83 14.77-62 51.54-34.47 34.06-87.22 94.69-142.8 190.09A14 14 0 0 1 605.71 633.89ZM540.83 244.11h-199a14 14 0 0 1 0-28h199a14 14 0 0 1 0 28ZM588.42 341.55H294.21a14 14 0 0 1 0-28H588.42a14 14 0 0 1 0 28ZM588.42 439H294.21a14 14 0 0 1 0-28H588.42a14 14 0 0 1 0 28ZM588.42 536.44H294.21a14 14 0 1 1 0-28H588.42a14 14 0 0 1 0 28Z" fill="#ffffff" class="svgShape color000000-4 selectable"></path><path d="M605.72,633.89H294.21a14,14,0,1,1,0-28H605.72a14,14,0,0,1,0,28Z" fill="#ffffff" class="svgShape color000000-5 selectable"></path></svg></g></svg>