<svg id="SvgjsSvg1043" width="288" height="288" xmlns="http://www.w3.org/2000/svg" version="1.1" xmlns:xlink="http://www.w3.org/1999/xlink" xmlns:svgjs="http://svgjs.com/svgjs"><defs id="SvgjsDefs1044"></defs><g id="SvgjsG1045"><svg xmlns="http://www.w3.org/2000/svg" viewBox="0 0 48 48" width="288" height="288"><path d="M23 3H5a2.002 2.002 0 0 0-2 2v19a1 1 0 0 0 1.707.707L8.414 21H23a2.002 2.002 0 0 0 2-2V5a2.002 2.002 0 0 0-2-2Zm-4.999 14q-.039 0-.08-.003a7.573 7.573 0 0 1-3.458-1.153c-.032-.021-.062-.047-.094-.068a7.995 7.995 0 0 1-3.227 1.214 1 1 0 1 1-.284-1.98 5.975 5.975 0 0 0 1.936-.629 7.545 7.545 0 0 1-.637-.843 1 1 0 0 1 1.686-1.076 5.538 5.538 0 0 0 .553.714A6.095 6.095 0 0 0 15.73 11H11a1 1 0 0 1 0-2h2V8a1 1 0 0 1 2 0v1h2a1 1 0 0 1 .99 1.141 8.184 8.184 0 0 1-2.004 4.256 5.66 5.66 0 0 0 2.092.606A1 1 0 0 1 18.001 17ZM43 23H25a2.002 2.002 0 0 0-2 2v14a2.002 2.002 0 0 0 2 2h14.586l3.707 3.707A1 1 0 0 0 45 44V25a2.002 2.002 0 0 0-2-2Zm-4.553 13.895a1 1 0 0 1-1.342-.448l-1.24-2.48h-3.73l-1.24 2.48a1 1 0 0 1-1.788-.894l.88-1.76a.983.983 0 0 1-.47-.826 1 1 0 0 1 1-1h.382l2.207-4.414a.925.925 0 0 1 .071-.091.959.959 0 0 1 .125-.16.947.947 0 0 1 .161-.126.936.936 0 0 1 .09-.07c.022-.01.045-.009.067-.018a1.077 1.077 0 0 1 .762 0c.022.009.045.007.066.018a.931.931 0 0 1 .09.07.83.83 0 0 1 .286.286.938.938 0 0 1 .071.09l2.207 4.415h.382a1 1 0 0 1 1 1 .983.983 0 0 1-.469.826l.88 1.76a1 1 0 0 1-.448 1.342ZM34 30.236l.865 1.73h-1.73ZM10 27a1 1 0 0 1-.707-1.707l2-2a1 1 0 0 1 1.414 1.414l-2 2A.997.997 0 0 1 10 27Zm4 0a.997.997 0 0 1-.707-.293l-2-2a1 1 0 0 1 1.414-1.414l2 2A1 1 0 0 1 14 27Zm6 8h-7a2.002 2.002 0 0 1-2-2v-9a1 1 0 0 1 2 0v9h7a1 1 0 0 1 0 2Zm16-14a1 1 0 0 1-.707-1.707l2-2a1 1 0 0 1 1.414 1.414l-2 2A.997.997 0 0 1 36 21Zm0 0a.997.997 0 0 1-.707-.293l-2-2a1 1 0 0 1 1.414-1.414l2 2A1 1 0 0 1 36 21Zm0 0a1 1 0 0 1-1-1v-9h-7a1 1 0 0 1 0-2h7a2.002 2.002 0 0 1 2 2v9a1 1 0 0 1-1 1Z" fill="#ffffff" class="svgShape color000000-0 selectable"></path></svg></g></svg>