<svg id="SvgjsSvg1048" width="288" height="288" xmlns="http://www.w3.org/2000/svg" version="1.1" xmlns:xlink="http://www.w3.org/1999/xlink" xmlns:svgjs="http://svgjs.com/svgjs"><defs id="SvgjsDefs1049"></defs><g id="SvgjsG1050"><svg xmlns="http://www.w3.org/2000/svg" viewBox="0 0 64 64" width="288" height="288"><path fill="#ffffff" d="M46 55H18a5 5 0 0 1-5-5V14a5 5 0 0 1 5-5h28a5 5 0 0 1 5 5v36a5 5 0 0 1-5 5ZM18 11a3 3 0 0 0-3 3v36a3 3 0 0 0 3 3h28a3 3 0 0 0 3-3V14a3 3 0 0 0-3-3Z" class="svgShape color222222-0 selectable"></path><path fill="#ffffff" d="M29 35h-6a1 1 0 0 1 0-2h6a1 1 0 0 1 0 2Z" class="svgShape color222222-1 selectable"></path><path fill="#ffffff" d="M26 38a1 1 0 0 1-1-1v-6a1 1 0 0 1 2 0v6a1 1 0 0 1-1 1zm15-3h-6a1 1 0 0 1 0-2h6a1 1 0 0 1 0 2zM23.88 47.12a1 1 0 0 1-.71-.29 1 1 0 0 1 0-1.42l4.24-4.24a1 1 0 0 1 1.42 1.42l-4.24 4.24a1 1 0 0 1-.71.29z" class="svgShape color222222-2 selectable"></path><path fill="#ffffff" d="M28.12 47.12a1 1 0 0 1-.71-.29l-4.24-4.24a1 1 0 0 1 1.42-1.42l4.24 4.24a1 1 0 0 1 0 1.42 1 1 0 0 1-.71.29zm7.76 0a1 1 0 0 1-.71-.29 1 1 0 0 1 0-1.42l4.24-4.24a1 1 0 0 1 1.42 1.42l-4.24 4.24a1 1 0 0 1-.71.29z" class="svgShape color222222-3 selectable"></path><circle cx="36" cy="42" r="1" fill="#ffffff" class="svgShape color222222-4 selectable"></circle><circle cx="40" cy="46" r="1" fill="#ffffff" class="svgShape color222222-5 selectable"></circle><path fill="#ffffff" d="M43.5 25h-23a1 1 0 0 1-1-1v-8a1 1 0 0 1 2 0v7h21v-6h-18a1 1 0 0 1 0-2h19a1 1 0 0 1 1 1v8a1 1 0 0 1-1 1Z" class="svgShape color222222-6 selectable"></path></svg></g></svg>